PathFileType	4	(X/Y/Z)	TVC_16_BWA3_walk_RCNL2025.trc
DataRate	CameraRate	NumFrames	NumMarkers	Units	OrigDataRate	OrigDataStartFrame	OrigNumFrames
100	100	13	27	mm	100	231	615
Frame#	Time	R_Shoulder			L_Shoulder			C7			J_Notch			R_Elbow			L_Elbow			R_Wrist			L_Wrist			R_Asis			L_Asis			R_Psis			L_Psis			Sacral			Thoracic			Sternum			R_Thigh_Lateral			R_Knee_Lateral			R_Shank_Lateral			R_Ankle_Lateral			R_Heel			R_Toe			L_Thigh_Lateral			L_Knee_Lateral			L_Shank_Lateral			L_Ankle_Lateral			L_Heel			L_Toe		
		X1	Y1	Z1	X2	Y2	Z2	X3	Y3	Z3	X4	Y4	Z4	X5	Y5	Z5	X6	Y6	Z6	X7	Y7	Z7	X8	Y8	Z8	X9	Y9	Z9	X10	Y10	Z10	X11	Y11	Z11	X12	Y12	Z12	X13	Y13	Z13	X14	Y14	Z14	X15	Y15	Z15	X16	Y16	Z16	X17	Y17	Z17	X18	Y18	Z18	X19	Y19	Z19	X20	Y20	Z20	X21	Y21	Z21	X22	Y22	Z22	X23	Y23	Z23	X24	Y24	Z24	X25	Y25	Z25	X26	Y26	Z26	X27	Y27	Z27
231	2.30000000	113.068359	1286.901611	-35.742424	95.985054	1285.099243	-358.828369	51.789238	1344.545288	-186.301300	169.324997	1196.577881	-191.413223	-15.141688	1009.390503	63.267292	105.411392	962.992554	-428.701538	10.413459	781.025238	100.818703	214.009575	778.590057	-383.944061	92.308372	855.227661	-70.233871	37.966854	877.491699	-327.039673	-89.342468	912.891235	-112.537773	-109.423134	915.701233	-217.540070	-99.382801	914.296234	-165.038921	-57.068279	1095.522339	-178.185226	173.410919	1006.178650	-209.256149	89.826256	594.247803	43.541698	196.285187	446.159698	-40.996796	210.855209	297.706909	17.095041	232.861191	72.645172	-49.841003	184.960312	53.277107	-98.906952	352.131042	79.334404	-93.945961	16.737562	584.852417	-400.985107	69.843658	414.585846	-300.703094	-1.134086	270.986694	-349.945221	-57.847198	58.317707	-255.537735	-98.301498	60.104584	-207.233963	77.869873	38.565681	-230.694107
232	2.31000000	117.150719	1286.233521	-34.985374	98.769058	1284.653320	-358.046844	55.232903	1344.015869	-185.271179	172.831970	1196.083496	-191.048721	-10.991113	1008.637878	63.956814	108.136696	962.377869	-427.966949	14.411582	780.136230	100.806534	215.903038	777.651489	-382.884735	96.755325	854.206482	-70.370155	40.780945	877.257874	-326.799896	-85.262566	912.056213	-111.334030	-106.025635	915.130859	-216.224396	-95.644100	913.593536	-163.779213	-53.469158	1094.933105	-176.934143	176.884644	1005.612488	-209.329819	93.187286	593.249329	43.525589	198.705887	444.789764	-40.970341	214.114883	296.525818	17.607101	239.616638	71.765144	-49.389374	192.094559	51.903427	-98.632301	359.079895	79.345825	-92.957352	19.590996	584.507690	-400.820770	72.067863	413.900665	-300.745056	0.463884	270.557312	-349.808594	-57.769043	58.371712	-255.477219	-98.167313	60.292751	-207.193161	77.908058	38.552235	-230.738068
233	2.32000000	121.275246	1285.555054	-34.163559	101.556770	1284.223267	-357.195892	58.700157	1343.490356	-184.162521	176.369644	1195.600342	-190.620438	-6.709744	1007.843384	64.737427	110.823952	961.774475	-427.123383	18.628047	779.217621	100.903545	217.691963	776.683105	-381.707886	101.285858	853.202637	-70.494118	43.628349	877.013489	-326.520538	-81.123192	911.213196	-110.054787	-102.581825	914.538147	-214.833023	-91.852509	912.875671	-162.443905	-49.830551	1094.337769	-175.627029	180.389572	1005.054932	-209.354401	96.825836	592.207031	43.383469	201.284271	443.465942	-40.946865	216.901291	295.210144	18.140366	244.785446	70.792030	-48.831921	197.611160	50.624989	-98.253517	364.371155	78.675102	-91.819267	22.491547	584.103333	-400.607330	74.373276	413.188873	-300.735168	2.117576	270.114380	-349.631317	-57.679718	58.440277	-255.405869	-98.022041	60.485062	-207.131653	77.942123	38.536423	-230.775345
234	2.33000000	125.440048	1284.874878	-33.277138	104.357872	1283.822266	-356.276520	62.194920	1342.978760	-182.976791	179.940826	1195.137573	-190.126358	-2.300504	1007.015747	65.604721	113.465797	961.196411	-426.173645	23.055801	778.279144	101.112640	219.376320	775.704224	-380.421951	105.885124	852.235352	-70.596153	46.519520	876.763855	-326.198730	-76.931709	910.380859	-108.714119	-99.088943	913.937439	-213.380768	-88.010326	912.159149	-161.047443	-46.151554	1093.747437	-174.272781	183.927689	1004.518066	-209.328140	100.757385	591.133301	43.133514	204.019485	442.204712	-40.923637	219.283417	293.774689	18.669266	248.512405	69.708076	-48.211491	201.640411	49.419842	-97.802109	368.156647	77.334503	-90.615555	25.419830	583.649963	-400.347809	76.740417	412.457458	-300.667114	3.804476	269.667755	-349.415039	-57.580173	58.525074	-255.324142	-97.866425	60.682320	-207.049210	77.973030	38.518330	-230.806915
235	2.34000000	129.642670	1284.202393	-32.326744	107.182877	1283.462891	-355.290100	65.720863	1342.491089	-181.716248	183.548096	1194.704712	-189.564835	2.232494	1006.164917	66.553703	116.055450	960.657715	-425.121826	27.687066	777.331635	101.435490	220.956398	774.734009	-379.035080	110.536293	851.324097	-70.665848	49.465160	876.514709	-325.831360	-72.696159	909.578064	-107.326752	-95.544342	913.343628	-211.883194	-84.120251	911.460846	-159.604973	-42.431564	1093.173828	-172.880463	187.501205	1004.013916	-209.249100	104.973488	590.050354	42.804489	206.904602	441.021118	-40.897205	221.336807	292.249664	19.170200	250.992065	68.520096	-47.571678	204.365814	48.284466	-97.312683	370.647919	75.385765	-89.424774	28.359091	583.162476	-400.043732	79.147652	411.714386	-300.534912	5.504303	269.228027	-349.161621	-57.471725	58.627560	-255.232697	-97.701401	60.885876	-206.946457	78.002098	38.498241	-230.833939
236	2.35000000	133.880081	1283.547485	-31.313446	110.042847	1283.157349	-354.238190	69.281288	1342.037354	-180.383865	187.193771	1194.311157	-188.934708	6.883876	1005.301636	67.578926	118.587265	960.171631	-423.973358	32.513304	776.386932	101.872448	222.432915	773.790833	-377.554916	115.221298	850.487976	-70.692200	52.475975	876.272095	-325.415100	-68.424988	908.823425	-105.907722	-91.945564	912.771545	-210.356201	-80.185276	910.797485	-158.131962	-38.670330	1092.628418	-171.459061	191.112473	1003.554077	-209.115112	109.438545	588.989014	42.432854	209.928177	439.928955	-40.863712	223.142746	290.679688	19.623793	252.456161	67.256851	-46.953308	206.011780	47.231403	-96.820091	372.103058	72.934708	-88.314331	31.296085	582.658691	-399.693909	81.571892	410.968628	-300.332886	7.199378	268.806396	-348.872375	-57.355953	58.748955	-255.132141	-97.528091	61.097389	-206.824585	78.030838	38.476631	-230.857498
237	2.36000000	138.148621	1282.920410	-30.238682	112.948952	1282.916626	-353.122681	72.878960	1341.627319	-178.983276	190.879791	1193.965698	-188.235138	11.646961	1004.437195	68.674606	121.057144	959.750854	-422.734802	37.525168	775.457642	102.422504	223.807266	772.891754	-375.988281	119.921944	849.745239	-70.663811	55.562366	876.042236	-324.946564	-64.126663	908.134521	-104.471970	-88.290306	912.235962	-208.815643	-76.208485	910.185242	-156.643806	-34.867935	1092.122192	-170.017166	194.763885	1003.149658	-208.923798	114.091423	587.986816	42.059303	213.075943	438.940887	-40.819168	224.788223	289.120544	20.016449	253.156586	65.963593	-46.391380	206.826401	46.284637	-96.356583	372.806091	70.120613	-87.336533	34.221783	582.157776	-399.293701	83.989388	410.229889	-300.055725	8.874054	268.414276	-348.546936	-57.234657	58.890171	-255.022873	-97.347763	61.318615	-206.685135	78.060822	38.454094	-230.878403
238	2.37000000	142.444031	1282.331787	-29.104200	115.912094	1282.750854	-351.945557	76.516006	1341.270142	-177.518646	194.607605	1193.677002	-187.465698	16.513767	1003.583374	69.834709	123.462997	959.406982	-421.413696	42.712388	774.556854	103.083275	225.081665	772.052216	-374.340958	124.621193	849.112915	-70.569023	58.734184	875.831177	-324.422394	-59.809391	907.527527	-103.033943	-84.576469	911.750610	-207.276962	-72.192930	909.639069	-155.155453	-31.024826	1091.665771	-168.562805	198.457748	1002.810852	-208.672562	118.852081	587.084290	41.725353	216.332321	438.068237	-40.759750	226.365936	287.634033	20.340981	253.345444	64.694466	-45.912724	207.061142	45.473217	-95.949112	373.040741	67.101196	-86.526909	37.131947	581.678406	-398.834778	86.376434	409.508179	-299.698792	10.514124	268.063690	-348.183228	-57.109795	59.051746	-254.904877	-97.161758	61.551140	-206.529770	78.093460	38.431320	-230.897064
239	2.38000000	146.761414	1281.791748	-27.911955	118.942467	1282.668579	-350.708893	80.193748	1340.973999	-175.994614	198.378113	1193.452881	-186.626236	21.475037	1002.752136	71.053131	125.805107	959.150574	-420.018280	48.063664	773.697662	103.851032	226.259369	771.285614	-372.617599	129.304291	848.606262	-70.396217	62.000450	875.644897	-323.839508	-55.480743	907.016357	-101.607216	-80.802162	911.328247	-205.754608	-68.141453	909.172302	-153.680912	-27.141775	1091.268555	-167.103119	202.196136	1002.547058	-208.358612	123.632271	586.320862	41.470062	219.681595	437.320282	-40.682110	227.972290	286.280457	20.596292	253.254105	63.503796	-45.534401	206.949371	44.823986	-95.617027	373.061676	64.035072	-85.904564	40.027573	581.237854	-398.306091	88.710083	408.813660	-299.258179	12.105829	267.766754	-347.777527	-56.983410	59.233757	-254.777756	-96.971519	61.796120	-206.359970	78.129890	38.408947	-230.913452
240	2.39000000	151.095352	1281.310181	-26.664022	122.049156	1282.676880	-349.414856	83.912666	1340.746460	-174.416016	202.191605	1193.300415	-185.716919	26.520313	1001.955017	72.323830	128.086304	958.990723	-418.557404	53.566634	772.892822	104.720798	227.344879	770.603271	-370.821671	133.959549	848.238098	-70.134140	65.369080	875.488708	-323.195007	-51.147331	906.612549	-100.204002	-76.965736	910.979675	-204.261658	-64.056534	908.796112	-152.232830	-23.219864	1090.938843	-165.644211	205.980789	1002.366455	-207.979019	128.348190	585.729736	41.327274	223.108551	436.703339	-40.583637	229.702240	285.110077	20.786318	253.074295	62.437973	-45.263180	206.687408	44.354725	-95.370514	373.068695	61.064301	-85.473885	42.914749	580.851013	-397.695557	90.968819	408.156128	-298.731201	13.634278	267.535339	-347.325226	-56.857529	59.435764	-254.640640	-96.778587	62.054104	-206.176910	78.170792	38.387486	-230.927094
241	2.40000000	155.439911	1280.896118	-25.362494	125.239777	1282.781250	-348.065674	87.672295	1340.593750	-172.787827	206.047714	1193.226074	-184.738083	31.638060	1001.203186	73.640938	130.312180	958.935242	-417.040161	59.207869	772.154358	105.686508	228.344139	770.014282	-368.955582	138.578674	848.018372	-69.772415	68.846634	875.367615	-322.486420	-46.814583	906.324585	-98.834717	-73.065842	910.713867	-202.809235	-59.940212	908.519226	-150.821976	-19.260445	1090.683594	-164.190887	209.813019	1002.276062	-207.530792	132.932236	585.333008	41.323292	226.598679	436.219696	-40.462624	231.640167	284.154816	20.918451	252.945190	61.529621	-45.096119	206.422302	44.069565	-95.210312	373.191071	58.300304	-85.226570	45.803406	580.529846	-396.992249	93.133156	407.544800	-298.116547	15.082208	267.379852	-346.821991	-56.734055	59.656837	-254.492386	-96.584557	62.324978	-205.981430	78.216331	38.367264	-230.937088
242	2.41000000	159.788834	1280.557983	-24.009392	128.520142	1282.985107	-346.663483	91.471222	1340.520996	-171.115005	209.945435	1193.234863	-183.690262	36.815823	1000.506775	74.998932	132.490997	958.990112	-415.475739	64.972948	771.493103	106.741158	229.264740	769.525665	-367.020905	143.156601	847.953247	-69.302116	72.438072	875.285950	-321.711823	-42.486542	906.157715	-97.507515	-69.101494	910.537598	-201.406052	-55.794018	908.347656	-149.456783	-15.265110	1090.508057	-162.746613	213.693619	1002.281555	-207.010956	137.341446	585.137512	41.475166	230.137619	435.866211	-40.318203	233.846756	283.422485	21.002134	252.950714	60.795307	-45.022194	206.249146	43.958439	-95.128967	373.488190	55.816734	-85.143311	48.704910	580.283264	-396.187775	95.186218	406.987946	-297.414856	16.430437	267.308563	-346.265228	-56.614639	59.895744	-254.331787	-96.390938	62.608074	-205.773849	78.266266	38.348396	-230.942337
243	2.42000000	164.135574	1280.302734	-22.606585	131.893967	1283.290405	-345.210449	95.307114	1340.531860	-169.402252	213.883118	1193.331055	-182.574127	42.040474	999.874939	76.392670	134.633636	959.159668	-413.873108	70.846609	770.918488	107.876980	230.116066	769.142395	-365.018707	147.691025	848.044800	-68.716309	76.146545	875.247375	-320.869843	-38.165779	906.113953	-96.227837	-65.072220	910.455139	-200.057968	-51.618999	908.284546	-148.142902	-11.235667	1090.415894	-161.313370	217.622879	1002.387024	-206.416565	141.561218	585.133667	41.790096	233.710419	435.633911	-40.150135	236.344345	282.895752	21.048775	253.126724	60.235958	-45.024437	206.216873	43.999924	-95.112892	373.964569	53.650898	-85.195686	51.629288	580.116821	-395.277679	97.114296	406.492584	-296.628601	17.659885	267.326538	-345.655182	-56.500542	60.151276	-254.157700	-96.199097	62.902508	-205.554047	78.320038	38.330757	-230.941757
